<svg xmlns="http://www.w3.org/2000/svg" width="24" height="25" viewBox="0 0 24 25" fill="none"><script xmlns=""/><path d="M22.427 12.515c0 5.898-4.781 10.68-10.68 10.68-5.898 0-10.679-4.782-10.679-10.68 0-5.899 4.781-10.68 10.68-10.68 5.898 0 10.68 4.781 10.68 10.68z" fill="#6EA644"/><path d="M12.015 6.107l8.81 6.408-8.81 6.407-8.811-6.407 8.81-6.408z" fill="#FFDB44"/><path d="M15.752 12.515a3.738 3.738 0 1 1-7.475 0 3.738 3.738 0 0 1 7.476 0z" fill="#0051B5"/><path d="M8.636 10.913a3.724 3.724 0 0 0-.36 1.602c3.845-.641 6.075 1.245 6.709 2.269a3.72 3.72 0 0 0 .73-1.735c-2.136-2.136-5.61-2.314-7.079-2.136z" fill="#fff"/></svg>