<svg xmlns="http://www.w3.org/2000/svg" width="195" height="42" viewBox="0 0 195 42"><script xmlns=""/><title>Certificado de segurança</title><g fill="none" fill-rule="evenodd"><path stroke="#9B9B9B" stroke-linecap="round" stroke-linejoin="round" d="M6.859 35.143c-7.813-7.814-7.81-20.476 0-28.284 7.81-7.812 20.473-7.812 28.281 0 7.812 7.808 7.812 20.473.002 28.284-7.81 7.81-20.473 7.809-28.283 0z"/><path fill="#60C659" stroke="#9B9B9B" stroke-linecap="round" stroke-linejoin="round" d="M17.194 19.457h-2.16c-.57 0-1.034.466-1.034 1.035v9.474c0 .57.464 1.034 1.034 1.034h11.433c.57 0 1.034-.464 1.034-1.034v-9.474c0-.57-.463-1.035-1.034-1.035h-9.273z"/><path stroke="#979797" d="M15.995 19.457v-3.702A4.76 4.76 0 0 1 20.75 11a4.76 4.76 0 0 1 4.756 4.755v3.702h-9.511z"/><path fill="#9B9B9B" d="M56.285 11.835v.79h-3.44v2.38h2.785v.76h-2.785v2.445h3.44V19H51.87v-7.165h4.415zm4.155 2.935a.197.197 0 0 1-.185.11.348.348 0 0 1-.17-.055 3.92 3.92 0 0 0-.233-.122 2.184 2.184 0 0 0-.327-.125 1.562 1.562 0 0 0-.45-.058c-.15 0-.285.02-.405.058a.973.973 0 0 0-.308.157.697.697 0 0 0-.195.232.624.624 0 0 0-.067.288c0 .13.037.238.112.325a.978.978 0 0 0 .298.225c.123.063.263.12.42.168.157.048.317.1.483.154.165.056.325.116.482.183.157.067.297.15.42.25s.222.222.297.367c.076.146.113.32.113.523 0 .233-.042.45-.125.647-.083.199-.207.37-.37.515-.163.146-.363.26-.6.343-.237.083-.51.125-.82.125-.353 0-.673-.057-.96-.173a2.433 2.433 0 0 1-.73-.442l.21-.34a.305.305 0 0 1 .095-.1.267.267 0 0 1 .145-.035c.06 0 .123.023.19.07.067.047.147.098.242.155a1.572 1.572 0 0 0 .852.225c.174 0 .326-.022.456-.068a.956.956 0 0 0 .325-.182.723.723 0 0 0 .193-.265.824.824 0 0 0 .062-.32.53.53 0 0 0-.112-.348.95.95 0 0 0-.298-.235 2.424 2.424 0 0 0-.422-.17 31.1 31.1 0 0 1-.486-.152 5.465 5.465 0 0 1-.485-.183 1.705 1.705 0 0 1-.422-.257 1.167 1.167 0 0 1-.297-.383 1.237 1.237 0 0 1-.113-.552 1.348 1.348 0 0 1 .47-1.028c.153-.135.342-.242.565-.322.223-.08.478-.12.765-.12.333 0 .632.052.898.157.265.106.494.25.687.433l-.2.325zm2.975 4.31c-.4 0-.707-.112-.922-.335-.216-.223-.323-.545-.323-.965v-3.1h-.61a.2.2 0 0 1-.135-.047c-.037-.032-.055-.081-.055-.148v-.355l.83-.105.205-1.565a.19.19 0 0 1 .065-.123.207.207 0 0 1 .14-.047h.45v1.745h1.45v.645h-1.45v3.04c0 .213.052.372.155.475a.541.541 0 0 0 .4.155.706.706 0 0 0 .242-.038 1.04 1.04 0 0 0 .178-.082c.05-.03.092-.057.128-.082a.167.167 0 0 1 .092-.038c.047 0 .088.028.125.085l.26.425a1.658 1.658 0 0 1-.555.337c-.217.082-.44.123-.67.123zM69.33 19h-.395a.471.471 0 0 1-.21-.04c-.053-.027-.088-.083-.105-.17l-.1-.47c-.133.12-.263.227-.39.322a2.073 2.073 0 0 1-.847.388c-.159.033-.335.05-.528.05a1.8 1.8 0 0 1-.552-.082 1.178 1.178 0 0 1-.75-.665 1.459 1.459 0 0 1-.113-.598c0-.2.055-.392.165-.578.11-.185.287-.349.532-.492.246-.143.566-.26.963-.352a7.333 7.333 0 0 1 1.455-.158v-.395c0-.393-.084-.69-.252-.892-.169-.202-.418-.303-.748-.303-.217 0-.4.027-.547.083a2.072 2.072 0 0 0-.386.185 6.9 6.9 0 0 0-.28.185.404.404 0 0 1-.232.082.267.267 0 0 1-.157-.047.362.362 0 0 1-.108-.118l-.16-.285c.28-.27.582-.472.905-.605.323-.133.682-.2 1.075-.2.283 0 .535.047.755.14a1.548 1.548 0 0 1 .895.995c.077.237.115.497.115.78V19zm-2.31-.545a1.697 1.697 0 0 0 .797-.182c.116-.059.225-.13.33-.213.106-.083.208-.178.308-.285V16.72c-.41.013-.758.046-1.045.098-.287.051-.52.119-.7.202a.975.975 0 0 0-.392.295.635.635 0 0 0-.123.38c0 .133.022.248.065.345a.654.654 0 0 0 .435.372c.1.029.208.043.325.043zm9.31.545h-.395a.471.471 0 0 1-.21-.04c-.053-.027-.088-.083-.105-.17l-.1-.47c-.133.12-.263.227-.39.322a2.073 2.073 0 0 1-.847.388c-.159.033-.335.05-.528.05a1.8 1.8 0 0 1-.552-.082 1.178 1.178 0 0 1-.75-.665 1.459 1.459 0 0 1-.113-.598c0-.2.055-.392.165-.578.11-.185.287-.349.532-.492.246-.143.566-.26.963-.352a7.333 7.333 0 0 1 1.455-.158v-.395c0-.393-.084-.69-.252-.892-.169-.202-.418-.303-.748-.303-.217 0-.4.027-.547.083a2.072 2.072 0 0 0-.386.185 6.9 6.9 0 0 0-.28.185.404.404 0 0 1-.232.082.267.267 0 0 1-.157-.047.362.362 0 0 1-.108-.118l-.16-.285c.28-.27.582-.472.905-.605.323-.133.682-.2 1.075-.2.283 0 .535.047.755.14a1.548 1.548 0 0 1 .895.995c.077.237.115.497.115.78V19zm-2.31-.545a1.697 1.697 0 0 0 .797-.182c.116-.059.225-.13.33-.213.106-.083.208-.178.308-.285V16.72c-.41.013-.758.046-1.045.098-.287.051-.52.119-.7.202a.975.975 0 0 0-.392.295.635.635 0 0 0-.123.38c0 .133.022.248.065.345a.654.654 0 0 0 .435.372c.1.029.208.043.325.043zm3.66 2.26v-6.78h.53c.127 0 .207.062.24.185l.075.6c.217-.263.464-.475.742-.635.279-.16.6-.24.963-.24.29 0 .553.056.79.167.237.112.438.277.605.495.167.219.295.49.385.813.09.323.135.695.135 1.115 0 .373-.05.72-.15 1.043-.1.321-.243.6-.43.834-.187.236-.416.42-.688.555a2.034 2.034 0 0 1-.917.203c-.313 0-.58-.052-.802-.155a1.808 1.808 0 0 1-.588-.44v2.24h-.89zm2.255-6.15c-.29 0-.544.067-.763.2-.218.133-.419.322-.602.565v2.45c.163.22.342.375.538.465.195.09.412.135.652.135.47 0 .832-.168 1.085-.505.253-.337.38-.817.38-1.44 0-.33-.03-.613-.087-.85a1.662 1.662 0 0 0-.253-.582.982.982 0 0 0-.405-.333 1.347 1.347 0 0 0-.545-.105zm4.255-2.93V19h-.89v-7.365h.89zm2.56 2.3V19h-.89v-5.065h.89zm.2-1.59a.566.566 0 0 1-.053.242.698.698 0 0 1-.14.2.65.65 0 0 1-.202.138.608.608 0 0 1-.488 0 .66.66 0 0 1-.337-.338.626.626 0 0 1 .138-.695.66.66 0 0 1 .2-.137.608.608 0 0 1 .488 0 .65.65 0 0 1 .341.342.6.6 0 0 1 .053.248zm4.825 2.49a.397.397 0 0 1-.08.085.19.19 0 0 1-.115.03.286.286 0 0 1-.162-.063 2.368 2.368 0 0 0-.223-.137 1.545 1.545 0 0 0-.8-.2c-.247 0-.465.044-.655.133a1.27 1.27 0 0 0-.477.382 1.731 1.731 0 0 0-.29.605 3.002 3.002 0 0 0-.098.795c0 .307.035.58.105.817.07.239.168.439.295.6.127.162.28.285.462.37.182.086.386.128.613.128.217 0 .395-.026.535-.078.14-.051.257-.109.35-.172.093-.063.17-.12.23-.172a.277.277 0 0 1 .18-.078c.077 0 .133.028.17.085l.25.325c-.22.27-.495.467-.825.593-.33.125-.678.187-1.045.187-.317 0-.61-.058-.882-.175a2.012 2.012 0 0 1-.708-.508 2.408 2.408 0 0 1-.473-.817 3.286 3.286 0 0 1-.172-1.105c0-.377.052-.725.158-1.045.105-.32.258-.596.46-.828.201-.231.45-.412.747-.542a2.52 2.52 0 0 1 1.02-.195c.353 0 .667.057.94.172.273.116.515.278.725.488l-.235.32zM96.71 19h-.395a.471.471 0 0 1-.21-.04c-.053-.027-.088-.083-.105-.17l-.1-.47c-.133.12-.263.227-.39.322a2.073 2.073 0 0 1-.848.388c-.158.033-.334.05-.527.05a1.8 1.8 0 0 1-.553-.082 1.178 1.178 0 0 1-.75-.665 1.459 1.459 0 0 1-.112-.598c0-.2.055-.392.165-.578.11-.185.287-.349.532-.492.246-.143.566-.26.963-.352a7.333 7.333 0 0 1 1.455-.158v-.395c0-.393-.084-.69-.252-.892-.169-.202-.418-.303-.748-.303-.217 0-.4.027-.547.083a2.072 2.072 0 0 0-.385.185 6.9 6.9 0 0 0-.28.185.404.404 0 0 1-.233.082.267.267 0 0 1-.157-.047.362.362 0 0 1-.108-.118l-.16-.285c.28-.27.582-.472.905-.605.323-.133.682-.2 1.075-.2.283 0 .535.047.755.14a1.548 1.548 0 0 1 .895.995c.077.237.115.497.115.78V19zm-2.31-.545a1.697 1.697 0 0 0 .797-.182c.116-.059.225-.13.33-.213.106-.083.208-.178.308-.285V16.72c-.41.013-.758.046-1.045.098-.287.051-.52.119-.7.202a.975.975 0 0 0-.392.295.635.635 0 0 0-.123.38c0 .133.022.248.065.345a.654.654 0 0 0 .435.372c.1.029.208.043.325.043zm4.93 1.78a.18.18 0 0 1 .07.018l.095.04a.83.83 0 0 0 .32.057c.14 0 .246-.027.317-.083a.256.256 0 0 0 .108-.212.24.24 0 0 0-.055-.16.427.427 0 0 0-.157-.11 1.24 1.24 0 0 0-.253-.075c-.1-.02-.213-.038-.34-.055l.185-.605a2.126 2.126 0 0 1-.767-.253 1.994 1.994 0 0 1-.608-.527 2.524 2.524 0 0 1-.4-.785 3.35 3.35 0 0 1-.145-1.02c0-.377.052-.725.157-1.045.106-.32.259-.596.46-.828.202-.231.451-.412.748-.542a2.52 2.52 0 0 1 1.02-.195c.353 0 .667.057.94.172.273.116.515.278.725.488l-.235.32a.397.397 0 0 1-.08.085.19.19 0 0 1-.115.03.286.286 0 0 1-.162-.063 2.369 2.369 0 0 0-.223-.137 1.545 1.545 0 0 0-.8-.2c-.247 0-.465.044-.655.133a1.27 1.27 0 0 0-.478.382 1.731 1.731 0 0 0-.29.605 3.002 3.002 0 0 0-.097.795c0 .307.035.58.105.817.07.239.168.439.295.6.127.162.28.285.463.37.181.086.385.128.612.128.217 0 .395-.026.535-.078.14-.051.257-.109.35-.172.093-.063.17-.12.23-.172a.277.277 0 0 1 .18-.078.205.205 0 0 1 .17.085l.25.325c-.197.24-.437.422-.72.545a2.85 2.85 0 0 1-.91.225l-.085.29c.3.067.517.157.653.272a.555.555 0 0 1 .202.443.53.53 0 0 1-.08.287.695.695 0 0 1-.222.218c-.096.06-.21.106-.343.137a1.904 1.904 0 0 1-1.17-.107l.085-.275c.02-.06.058-.09.115-.09zM106.45 19h-.395a.471.471 0 0 1-.21-.04c-.053-.027-.088-.083-.105-.17l-.1-.47c-.133.12-.263.227-.39.322a2.073 2.073 0 0 1-.847.388c-.159.033-.335.05-.528.05a1.8 1.8 0 0 1-.552-.082 1.178 1.178 0 0 1-.75-.665 1.459 1.459 0 0 1-.113-.598c0-.2.055-.392.165-.578.11-.185.287-.349.532-.492.246-.143.566-.26.963-.352a7.333 7.333 0 0 1 1.455-.158v-.395c0-.393-.084-.69-.252-.892-.169-.202-.418-.303-.748-.303-.217 0-.4.027-.547.083a2.072 2.072 0 0 0-.386.185 6.9 6.9 0 0 0-.28.185.404.404 0 0 1-.232.082.267.267 0 0 1-.157-.047.362.362 0 0 1-.108-.118l-.16-.285c.28-.27.582-.472.905-.605.323-.133.682-.2 1.075-.2.283 0 .535.047.755.14a1.548 1.548 0 0 1 .895.995c.077.237.115.497.115.78V19zm-2.31-.545a1.697 1.697 0 0 0 .797-.182c.116-.059.225-.13.33-.213.106-.083.208-.178.308-.285V16.72c-.41.013-.758.046-1.045.098-.287.051-.52.119-.7.202a.975.975 0 0 0-.392.295.635.635 0 0 0-.123.38c0 .133.022.248.065.345a.654.654 0 0 0 .435.372c.1.029.208.043.325.043zm1.05-6.08c.12 0 .213-.035.278-.105.064-.07.099-.178.102-.325h.54c0 .157-.02.3-.063.432a.976.976 0 0 1-.18.338.826.826 0 0 1-.28.217.831.831 0 0 1-.69.005 2.776 2.776 0 0 1-.287-.157c-.09-.057-.175-.11-.255-.157a.453.453 0 0 0-.235-.073c-.24 0-.363.147-.37.44h-.555c0-.16.022-.306.065-.438.043-.131.105-.244.185-.34a.83.83 0 0 1 .645-.297c.117 0 .226.024.328.073.101.048.197.1.287.157l.252.158a.44.44 0 0 0 .233.072zm4.66 1.48c.37 0 .704.062 1.003.185.298.123.551.298.76.525.208.227.368.5.48.822.111.322.167.681.167 1.078 0 .4-.056.76-.168 1.08-.111.32-.271.593-.48.82-.208.227-.461.4-.76.523a2.633 2.633 0 0 1-1.002.182c-.37 0-.704-.06-1.002-.183a2.111 2.111 0 0 1-.763-.522c-.21-.227-.372-.5-.485-.82a3.22 3.22 0 0 1-.17-1.08c0-.397.057-.756.17-1.078.113-.321.275-.595.485-.822.21-.227.464-.402.763-.525a2.602 2.602 0 0 1 1.002-.185zm0 4.52c.5 0 .873-.167 1.12-.503.247-.335.37-.802.37-1.402 0-.603-.123-1.073-.37-1.41-.247-.337-.62-.505-1.12-.505-.253 0-.473.043-.66.13a1.235 1.235 0 0 0-.468.375 1.666 1.666 0 0 0-.28.602 3.23 3.23 0 0 0-.092.808c0 .3.03.568.093.805.061.237.154.436.28.598.125.161.28.285.467.372.187.087.407.13.66.13zm5.44 2.34v-6.78h.53c.127 0 .207.062.24.185l.075.6c.217-.263.464-.475.742-.635.279-.16.6-.24.963-.24.29 0 .553.056.79.167.237.112.438.277.605.495.167.219.295.49.385.813.09.323.135.695.135 1.115 0 .373-.05.72-.15 1.043-.1.321-.243.6-.43.834-.187.236-.416.42-.688.555a2.034 2.034 0 0 1-.917.203c-.313 0-.58-.052-.802-.155a1.808 1.808 0 0 1-.588-.44v2.24h-.89zm2.255-6.15c-.29 0-.544.067-.763.2-.218.133-.419.322-.602.565v2.45c.163.22.342.375.537.465.196.09.413.135.653.135.47 0 .832-.168 1.085-.505.253-.337.38-.817.38-1.44 0-.33-.03-.613-.087-.85a1.662 1.662 0 0 0-.253-.582.982.982 0 0 0-.405-.333 1.347 1.347 0 0 0-.545-.105zm5.315-.71c.37 0 .704.062 1.002.185.299.123.552.298.76.525.209.227.369.5.48.822.112.322.168.681.168 1.078 0 .4-.056.76-.167 1.08-.112.32-.272.593-.48.82-.209.227-.462.4-.76.523a2.633 2.633 0 0 1-1.003.182c-.37 0-.704-.06-1.002-.183a2.111 2.111 0 0 1-.763-.522c-.21-.227-.372-.5-.485-.82a3.22 3.22 0 0 1-.17-1.08c0-.397.057-.756.17-1.078.113-.321.275-.595.485-.822.21-.227.464-.402.763-.525a2.602 2.602 0 0 1 1.002-.185zm0 4.52c.5 0 .873-.167 1.12-.503.247-.335.37-.802.37-1.402 0-.603-.123-1.073-.37-1.41-.247-.337-.62-.505-1.12-.505-.253 0-.473.043-.66.13a1.235 1.235 0 0 0-.468.375 1.666 1.666 0 0 0-.28.602 3.23 3.23 0 0 0-.092.808c0 .3.03.568.093.805.061.237.154.436.28.598.125.161.28.285.467.372.187.087.407.13.66.13zm6.41-3.605a.197.197 0 0 1-.185.11.348.348 0 0 1-.17-.055 3.92 3.92 0 0 0-.232-.122 2.184 2.184 0 0 0-.328-.125 1.562 1.562 0 0 0-.45-.058c-.15 0-.285.02-.405.058a.973.973 0 0 0-.307.157.697.697 0 0 0-.195.232.624.624 0 0 0-.068.288c0 .13.038.238.113.325a.978.978 0 0 0 .297.225c.123.063.263.12.42.168.157.048.317.1.483.154.165.056.325.116.482.183.157.067.297.15.42.25s.222.222.297.367c.076.146.113.32.113.523 0 .233-.042.45-.125.647-.083.199-.207.37-.37.515-.163.146-.363.26-.6.343-.237.083-.51.125-.82.125-.353 0-.673-.057-.96-.173a2.433 2.433 0 0 1-.73-.442l.21-.34a.305.305 0 0 1 .095-.1.267.267 0 0 1 .145-.035c.06 0 .123.023.19.07.067.047.147.098.242.155a1.572 1.572 0 0 0 .853.225c.173 0 .325-.022.455-.068a.956.956 0 0 0 .325-.182.723.723 0 0 0 .192-.265.824.824 0 0 0 .063-.32.53.53 0 0 0-.113-.348.95.95 0 0 0-.297-.235 2.424 2.424 0 0 0-.423-.17c-.158-.048-.32-.099-.485-.152a5.465 5.465 0 0 1-.485-.183 1.705 1.705 0 0 1-.422-.257 1.167 1.167 0 0 1-.298-.383 1.237 1.237 0 0 1-.112-.552 1.348 1.348 0 0 1 .47-1.028c.153-.135.342-.242.565-.322.223-.08.478-.12.765-.12.333 0 .632.052.897.157.266.106.495.25.688.433l-.2.325zm4.34 0a.197.197 0 0 1-.185.11.348.348 0 0 1-.17-.055 3.92 3.92 0 0 0-.232-.122 2.184 2.184 0 0 0-.328-.125 1.562 1.562 0 0 0-.45-.058c-.15 0-.285.02-.405.058a.973.973 0 0 0-.308.157.697.697 0 0 0-.195.232.624.624 0 0 0-.067.288c0 .13.037.238.112.325a.978.978 0 0 0 .298.225c.123.063.263.12.42.168.157.048.317.1.483.154.165.056.325.116.482.183.157.067.297.15.42.25s.222.222.297.367c.075.146.113.32.113.523 0 .233-.042.45-.125.647-.083.199-.207.37-.37.515-.163.146-.363.26-.6.343-.237.083-.51.125-.82.125-.353 0-.673-.057-.96-.173a2.433 2.433 0 0 1-.73-.442l.21-.34a.305.305 0 0 1 .095-.1.267.267 0 0 1 .145-.035c.06 0 .123.023.19.07.067.047.147.098.243.155a1.572 1.572 0 0 0 .852.225c.173 0 .325-.022.455-.068a.956.956 0 0 0 .325-.182.723.723 0 0 0 .192-.265.824.824 0 0 0 .063-.32.53.53 0 0 0-.113-.348.95.95 0 0 0-.297-.235 2.424 2.424 0 0 0-.423-.17c-.158-.048-.32-.099-.484-.152a5.465 5.465 0 0 1-.486-.183 1.705 1.705 0 0 1-.422-.257 1.167 1.167 0 0 1-.298-.383 1.237 1.237 0 0 1-.112-.552 1.348 1.348 0 0 1 .47-1.028c.153-.135.342-.242.565-.322.223-.08.478-.12.765-.12.333 0 .632.052.898.157.265.106.494.25.687.433l-.2.325zm2.21-.835v3.23c0 .383.088.68.265.89.177.21.443.315.8.315.26 0 .505-.062.735-.185.23-.123.442-.295.635-.515v-3.735h.89V19h-.53c-.127 0-.207-.062-.24-.185l-.07-.545c-.22.243-.467.44-.74.588a1.94 1.94 0 0 1-.94.222c-.277 0-.52-.046-.732-.137a1.452 1.452 0 0 1-.533-.388 1.646 1.646 0 0 1-.323-.605 2.7 2.7 0 0 1-.107-.785v-3.23h.89zm5.78 0V19h-.89v-5.065h.89zm.2-1.59a.566.566 0 0 1-.053.242.698.698 0 0 1-.14.2.65.65 0 0 1-.202.138.608.608 0 0 1-.488 0 .66.66 0 0 1-.337-.338.626.626 0 0 1 .137-.695.66.66 0 0 1 .2-.137.608.608 0 0 1 .488 0 .65.65 0 0 1 .343.342.6.6 0 0 1 .052.248zm-85.1 16.95c.073 0 .137.028.19.085l.53.575a2.91 2.91 0 0 1-1.083.835c-.428.193-.942.29-1.542.29-.537 0-1.02-.092-1.448-.275a3.19 3.19 0 0 1-1.097-.765 3.349 3.349 0 0 1-.697-1.17 4.392 4.392 0 0 1-.243-1.485c0-.543.09-1.04.27-1.493.18-.451.433-.84.76-1.167a3.44 3.44 0 0 1 1.172-.763 4.031 4.031 0 0 1 1.508-.272c.537 0 1.006.086 1.407.258.402.171.746.399 1.033.682l-.45.625a.408.408 0 0 1-.102.105.29.29 0 0 1-.173.045.393.393 0 0 1-.235-.09 2.486 2.486 0 0 0-.773-.39 2.406 2.406 0 0 0-.717-.09c-.34 0-.652.06-.938.177-.285.119-.53.288-.735.508-.205.22-.364.487-.48.803-.115.315-.172.669-.172 1.062 0 .407.057.768.172 1.085.116.317.271.583.468.8.197.217.428.382.695.497.267.116.553.173.86.173.183 0 .35-.01.497-.03.149-.02.285-.052.41-.095.126-.043.244-.1.355-.168.112-.068.223-.152.333-.252a.474.474 0 0 1 .105-.072.265.265 0 0 1 .12-.028zm6.295-5.525v1.07H59.79v2.005h2.525v1.035H59.79v2.045h3.205V31h-4.56v-7.23h4.56zm2.555 4.405V31h-1.345v-7.23h2.205c.493 0 .916.05 1.267.152.352.102.64.245.865.428.226.183.39.402.495.657.106.256.158.536.158.843 0 .243-.036.473-.107.69a1.997 1.997 0 0 1-.81 1.055c-.199.133-.425.24-.678.32.17.097.317.235.44.415L69.85 31h-1.21a.59.59 0 0 1-.297-.07.608.608 0 0 1-.208-.2l-1.52-2.315a.533.533 0 0 0-.188-.185.657.657 0 0 0-.302-.055h-.575zm0-.965h.84c.253 0 .474-.032.662-.095a1.28 1.28 0 0 0 .465-.262c.122-.112.213-.245.273-.398.06-.153.09-.322.09-.505 0-.367-.12-.648-.362-.845-.242-.197-.611-.295-1.108-.295h-.86v2.4zm10.255-3.44v1.105H73.63V31h-1.345v-6.125H70.1V23.77h5.705zm2.37 7.23h-1.35v-7.23h1.35V31zm6.185-7.23v1.07h-3.205v2.14h2.705v1.075h-2.705V31H79.8v-7.23h4.56zM86.93 31h-1.35v-7.23h1.35V31zm6.595-1.705c.073 0 .137.028.19.085l.53.575a2.91 2.91 0 0 1-1.083.835c-.428.193-.942.29-1.542.29-.537 0-1.02-.092-1.448-.275a3.19 3.19 0 0 1-1.097-.765 3.349 3.349 0 0 1-.698-1.17 4.392 4.392 0 0 1-.242-1.485c0-.543.09-1.04.27-1.493.18-.451.433-.84.76-1.167a3.44 3.44 0 0 1 1.172-.763 4.031 4.031 0 0 1 1.508-.272c.537 0 1.006.086 1.407.258.402.171.746.399 1.033.682l-.45.625a.408.408 0 0 1-.102.105.29.29 0 0 1-.173.045.393.393 0 0 1-.235-.09 2.486 2.486 0 0 0-.773-.39 2.406 2.406 0 0 0-.717-.09c-.34 0-.652.06-.938.177-.285.119-.53.288-.735.508-.205.22-.364.487-.48.803-.115.315-.172.669-.172 1.062 0 .407.057.768.172 1.085.116.317.271.583.468.8.197.217.428.382.695.497.267.116.553.173.86.173.183 0 .35-.01.498-.03.148-.02.284-.052.41-.095.125-.043.243-.1.355-.168.111-.068.222-.152.332-.252a.474.474 0 0 1 .105-.072.265.265 0 0 1 .12-.028zm8.09 1.705h-1.04a.454.454 0 0 1-.45-.305l-.54-1.475H96.59l-.54 1.475a.473.473 0 0 1-.445.305H94.56l2.84-7.23h1.375l2.84 7.23zm-4.68-2.73h2.305l-.88-2.405a10.983 10.983 0 0 1-.275-.85c-.047.17-.092.328-.137.475-.046.147-.09.275-.133.385l-.88 2.395zm11.845-.885a3.91 3.91 0 0 1-.265 1.46 3.354 3.354 0 0 1-.745 1.145c-.32.32-.705.568-1.155.745-.45.177-.948.265-1.495.265h-2.76v-7.23h2.76c.547 0 1.045.09 1.495.268.45.178.835.426 1.155.744.32.319.568.7.745 1.143.177.443.265.93.265 1.46zm-1.375 0c0-.397-.053-.752-.16-1.068a2.262 2.262 0 0 0-.455-.8 1.962 1.962 0 0 0-.718-.502 2.469 2.469 0 0 0-.952-.175h-1.405v5.09h1.405c.353 0 .67-.058.953-.175.281-.117.52-.284.717-.502.197-.219.348-.485.455-.8.107-.316.16-.671.16-1.068zm9.365 0c0 .53-.088 1.02-.265 1.473a3.488 3.488 0 0 1-.745 1.172c-.32.33-.705.587-1.155.772-.45.186-.948.278-1.495.278a3.915 3.915 0 0 1-1.498-.277 3.395 3.395 0 0 1-1.16-.773c-.321-.33-.57-.72-.747-1.172a4.007 4.007 0 0 1-.265-1.473c0-.53.088-1.02.265-1.473.177-.451.426-.842.748-1.172.321-.33.708-.587 1.16-.772.451-.186.95-.278 1.497-.278.547 0 1.045.093 1.495.28.45.187.835.444 1.155.773.32.328.568.718.745 1.17.177.451.265.942.265 1.472zm-1.38 0c0-.397-.052-.752-.157-1.068a2.258 2.258 0 0 0-.453-.802 1.948 1.948 0 0 0-.718-.505 2.469 2.469 0 0 0-.952-.175c-.353 0-.672.058-.955.175a1.967 1.967 0 0 0-.722.505c-.199.22-.351.487-.458.802-.107.316-.16.671-.16 1.068s.053.752.16 1.067c.107.316.26.582.458.8.198.219.439.386.722.503.283.117.602.175.955.175s.67-.058.953-.175c.281-.117.52-.284.717-.502.197-.219.347-.485.453-.8.105-.316.157-.671.157-1.068zm10.79 0a3.91 3.91 0 0 1-.265 1.46 3.354 3.354 0 0 1-.745 1.145c-.32.32-.705.568-1.155.745-.45.177-.948.265-1.495.265h-2.76v-7.23h2.76c.547 0 1.045.09 1.495.268.45.178.835.426 1.155.744.32.319.568.7.745 1.143.177.443.265.93.265 1.46zm-1.375 0c0-.397-.053-.752-.16-1.068a2.262 2.262 0 0 0-.455-.8 1.962 1.962 0 0 0-.718-.502 2.469 2.469 0 0 0-.952-.175h-1.405v5.09h1.405c.353 0 .67-.058.953-.175.281-.117.52-.284.717-.502.197-.219.348-.485.455-.8.107-.316.16-.671.16-1.068zm6.99-3.615v1.07h-3.205v2.005h2.525v1.035h-2.525v2.045h3.205V31h-4.56v-7.23h4.56zm6.97 1.315a.371.371 0 0 1-.127.155.32.32 0 0 1-.173.045.438.438 0 0 1-.225-.078 7.638 7.638 0 0 0-.295-.172 2.409 2.409 0 0 0-.397-.172 1.67 1.67 0 0 0-.538-.078c-.187 0-.35.022-.487.067a1.032 1.032 0 0 0-.35.188.75.75 0 0 0-.213.288.944.944 0 0 0-.07.367c0 .17.048.312.143.425.095.113.22.21.377.29.157.08.335.152.535.215s.404.13.613.203c.208.071.412.154.612.25.2.095.378.214.535.36.157.145.282.322.377.532.096.21.143.465.143.765 0 .327-.056.632-.167.918a2.117 2.117 0 0 1-.49.745 2.308 2.308 0 0 1-.788.5 2.9 2.9 0 0 1-1.065.182 3.58 3.58 0 0 1-1.322-.26 3.355 3.355 0 0 1-.576-.3 2.83 2.83 0 0 1-.477-.39l.39-.645a.498.498 0 0 1 .133-.117.324.324 0 0 1 .172-.048c.083 0 .173.034.27.102.097.069.21.145.343.228.131.083.286.16.465.228.178.068.392.102.642.102.383 0 .68-.09.89-.273.21-.181.315-.442.315-.782a.727.727 0 0 0-.143-.465 1.15 1.15 0 0 0-.377-.303 2.819 2.819 0 0 0-.535-.207 17.74 17.74 0 0 1-.61-.185 5.26 5.26 0 0 1-.61-.24 1.976 1.976 0 0 1-.535-.365 1.66 1.66 0 0 1-.377-.563c-.095-.225-.143-.502-.143-.832a1.971 1.971 0 0 1 .618-1.435 2.27 2.27 0 0 1 .742-.465 2.703 2.703 0 0 1 1.005-.175c.427 0 .82.067 1.18.2s.667.32.92.56l-.33.635zm6.05-1.315v1.07h-3.205v2.005h2.525v1.035h-2.525v2.045h3.205V31h-4.56v-7.23h4.56zm4.485 6.24c.303 0 .567-.027.792-.083.226-.055.44-.13.643-.227v-1.315h-.905a.283.283 0 0 1-.205-.073.237.237 0 0 1-.075-.177v-.76h2.405V30.3c-.183.133-.374.25-.573.348-.198.098-.41.179-.635.242-.225.063-.465.11-.722.142a6.794 6.794 0 0 1-.83.048 3.77 3.77 0 0 1-1.455-.275 3.457 3.457 0 0 1-1.15-.765 3.483 3.483 0 0 1-.757-1.17 3.956 3.956 0 0 1-.273-1.485c0-.543.088-1.042.265-1.495.177-.453.427-.843.752-1.17a3.36 3.36 0 0 1 1.183-.76c.463-.18.983-.27 1.56-.27.59 0 1.1.087 1.532.262.432.176.798.403 1.098.683l-.39.61c-.077.123-.178.185-.305.185a.454.454 0 0 1-.245-.08 19.045 19.045 0 0 0-.327-.19 2.216 2.216 0 0 0-.37-.165 3.016 3.016 0 0 0-.456-.115 3.35 3.35 0 0 0-.582-.045c-.357 0-.68.06-.968.18-.288.12-.534.292-.737.515-.203.223-.36.492-.47.805-.11.313-.165.663-.165 1.05 0 .417.058.787.175 1.112.117.326.28.6.49.823.21.223.46.394.75.512.29.119.607.178.95.178zm6.82-.095c.26 0 .492-.043.697-.13.206-.087.379-.208.52-.365.142-.157.25-.347.326-.57.075-.223.112-.473.112-.75v-4.33h1.345v4.33c0 .43-.07.827-.208 1.192-.138.366-.337.68-.597.945-.26.266-.575.472-.945.62-.37.149-.787.223-1.25.223-.463 0-.88-.074-1.25-.222a2.7 2.7 0 0 1-.942-.62 2.713 2.713 0 0 1-.595-.945 3.338 3.338 0 0 1-.208-1.193v-4.33h1.345v4.325c0 .277.037.527.113.75.075.223.182.414.322.573.14.158.312.28.518.367.205.087.437.13.697.13zm5.76-1.74V31h-1.345v-7.23h2.205c.493 0 .916.05 1.267.152.352.102.64.245.865.428.226.183.39.402.495.657.106.256.158.536.158.843 0 .243-.036.473-.108.69a1.997 1.997 0 0 1-.81 1.055c-.198.133-.424.24-.677.32.17.097.317.235.44.415l1.81 2.67h-1.21a.59.59 0 0 1-.297-.07.608.608 0 0 1-.208-.2l-1.52-2.315a.533.533 0 0 0-.188-.185.657.657 0 0 0-.302-.055h-.575zm0-.965h.84c.253 0 .474-.032.662-.095a1.28 1.28 0 0 0 .465-.262c.122-.112.213-.245.273-.398.06-.153.09-.322.09-.505 0-.367-.12-.648-.363-.845-.241-.197-.61-.295-1.107-.295h-.86v2.4zM173.395 31h-1.04a.454.454 0 0 1-.45-.305l-.54-1.475h-2.995l-.54 1.475a.473.473 0 0 1-.445.305h-1.045l2.84-7.23h1.375l2.84 7.23zm-4.68-2.73h2.305l-.88-2.405a10.984 10.984 0 0 1-.275-.85c-.047.17-.093.328-.138.475-.044.147-.089.275-.132.385l-.88 2.395zm6.13-4.5c.06 0 .11.003.15.008.04.005.076.014.107.03a.36.36 0 0 1 .093.064c.03.029.063.066.1.113l3.795 4.835a4.978 4.978 0 0 1-.028-.343 7.013 7.013 0 0 1-.007-.312V23.77h1.185V31h-.695a.616.616 0 0 1-.265-.05.59.59 0 0 1-.205-.18l-3.78-4.815a6.936 6.936 0 0 1 .03.605V31h-1.185v-7.23h.705zm9.285 8.365c.023 0 .048.003.072.01l.085.025a.81.81 0 0 0 .243.035c.11 0 .192-.02.248-.063a.186.186 0 0 0 .082-.152c0-.097-.06-.166-.18-.207a3.064 3.064 0 0 0-.555-.113l.185-.615a3.388 3.388 0 0 1-1.265-.378 3.134 3.134 0 0 1-.952-.785 3.482 3.482 0 0 1-.603-1.12 4.411 4.411 0 0 1-.21-1.387c0-.543.09-1.04.27-1.493.18-.451.433-.84.76-1.167a3.44 3.44 0 0 1 1.172-.763 4.031 4.031 0 0 1 1.508-.272c.537 0 1.006.086 1.407.258.402.171.746.399 1.033.682l-.45.625a.408.408 0 0 1-.102.105.29.29 0 0 1-.173.045.393.393 0 0 1-.235-.09 2.486 2.486 0 0 0-.773-.39 2.406 2.406 0 0 0-.717-.09c-.34 0-.652.06-.938.177-.285.119-.53.288-.734.508-.206.22-.365.487-.48.803-.116.315-.173.669-.173 1.062 0 .407.057.768.172 1.085.116.317.271.583.468.8.197.217.428.382.695.497.267.116.553.173.86.173.183 0 .35-.01.498-.03.148-.02.284-.052.41-.095.125-.043.243-.1.355-.168.111-.068.222-.152.332-.252a.474.474 0 0 1 .105-.072.265.265 0 0 1 .31.057l.53.575c-.267.333-.59.594-.967.783-.379.188-.826.299-1.343.332l-.06.205c.297.073.505.172.625.298.12.125.18.272.18.442 0 .11-.03.21-.087.3a.734.734 0 0 1-.248.23 1.354 1.354 0 0 1-.385.147 2.18 2.18 0 0 1-.495.053 2.297 2.297 0 0 1-.735-.115l.115-.38c.02-.077.067-.115.14-.115zM194.76 31h-1.04a.454.454 0 0 1-.45-.305l-.54-1.475h-2.995l-.54 1.475a.473.473 0 0 1-.445.305h-1.045l2.84-7.23h1.375l2.84 7.23zm-4.68-2.73h2.305l-.88-2.405a10.984 10.984 0 0 1-.275-.85c-.047.17-.093.328-.137.475-.045.147-.09.275-.133.385l-.88 2.395z"/></g></svg>