<svg xmlns="http://www.w3.org/2000/svg" width="26" height="26" viewBox="0 0 26 26" fill="none"><script xmlns=""/><circle cx="12.8" cy="13.015" r="10.909" fill="#F2F0F2"/><mask id="a" style="mask-type:alpha" maskUnits="userSpaceOnUse" x="1" y="2" width="23" height="22"><circle cx="12.8" cy="13.015" r="10.909" fill="#FCFCFC"/></mask><g mask="url(#a)"><path fill="#D90026" d="M5.436 21.469h14.999v2.727H5.436z"/><path fill="#D90026" d="M5.436 21.469h14.999v2.727H5.436zM2.164 16.015h21.545v2.727H2.164z"/><path fill="#D90026" d="M2.164 16.015h21.545v2.727H2.164zM2.164 10.288h21.545v2.727H2.164z"/><path fill="#D90026" d="M2.164 10.288h21.545v2.727H2.164zM2.164 4.833h21.545V7.56H2.164z"/><path fill="#D90026" d="M2.164 4.833h21.545V7.56H2.164z"/><path fill="#0052B5" d="M1.891 2.106h11.181v10.909H1.891z"/><path d="M10.89 11.242l-.818.41.273-.819-.545-.545h.818l.273-.818.409.818h.681l-.545.545.273.819-.818-.41zM7.073 11.242l-.818.41.272-.819-.545-.545H6.8l.273-.818.409.818h.682l-.546.545.273.819-.818-.41zM3.255 11.242l-.818.41.272-.819-.545-.545h.818l.273-.818.409.818h.682l-.546.545.273.819-.818-.41zM10.89 8.242l-.818.41.273-.819-.545-.545h.818l.273-.818.409.818h.681l-.545.545.273.818-.818-.409zM10.89 5.243l-.818.409.273-.818-.545-.546h.818l.273-.818.409.818h.681l-.545.546.273.818-.818-.41zM10.89 2.243l-.818.409.273-.818-.545-.546h.818l.273-.818.409.818h.681l-.545.546.273.818-.818-.41zM7.073 5.243l-.818.409.272-.818-.545-.546H6.8l.273-.818.409.818h.682l-.546.546.273.818-.818-.41zM7.073 8.242l-.818.41.272-.819-.545-.545H6.8l.273-.818.409.818h.682l-.546.545.273.818-.818-.409zM3.255 8.242l-.818.41.272-.819-.545-.545h.818l.273-.818.409.818h.682l-.546.545.273.818-.818-.409z" fill="#EFEFEF"/></g></svg>