<svg width="25" height="25" viewBox="0 0 25 25" fill="none" xmlns="http://www.w3.org/2000/svg">
<circle cx="12.5631" cy="12.0146" r="10.6796" fill="#F2F0F2"/>
<mask id="mask0_293_2167" style="mask-type:alpha" maskUnits="userSpaceOnUse" x="1" y="1" width="23" height="22">
<circle cx="12.5631" cy="12.0146" r="10.6796" fill="#FCFCFC"/>
</mask>
<g mask="url(#mask0_293_2167)">
<rect x="5.35437" y="20.2913" width="14.6845" height="2.6699" fill="#D90026"/>
<rect x="5.35437" y="20.2913" width="14.6845" height="2.6699" fill="#D90026"/>
<rect x="2.15045" y="14.9514" width="21.0922" height="2.6699" fill="#D90026"/>
<rect x="2.15045" y="14.9514" width="21.0922" height="2.6699" fill="#D90026"/>
<rect x="2.15045" y="9.34467" width="21.0922" height="2.6699" fill="#D90026"/>
<rect x="2.15045" y="9.34467" width="21.0922" height="2.6699" fill="#D90026"/>
<rect x="2.15045" y="4.00485" width="21.0922" height="2.6699" fill="#D90026"/>
<rect x="2.15045" y="4.00485" width="21.0922" height="2.6699" fill="#D90026"/>
<rect x="1.88348" y="1.33496" width="10.9466" height="10.6796" fill="#0052B5"/>
<path d="M10.6942 10.2791L9.89321 10.6796L10.1602 9.87862L9.62622 9.34464H10.4272L10.6942 8.54367L11.0947 9.34464H11.7621L11.2282 9.87862L11.4952 10.6796L10.6942 10.2791Z" fill="#EFEFEF"/>
<path d="M6.95633 10.2791L6.15536 10.6796L6.42235 9.87862L5.88837 9.34464H6.68934L6.95633 8.54367L7.35681 9.34464H8.02429L7.49031 9.87862L7.7573 10.6796L6.95633 10.2791Z" fill="#EFEFEF"/>
<path d="M3.21841 10.2791L2.41744 10.6796L2.68443 9.87862L2.15045 9.34464H2.95142L3.21841 8.54367L3.6189 9.34464H4.28637L3.75239 9.87862L4.01938 10.6796L3.21841 10.2791Z" fill="#EFEFEF"/>
<path d="M10.6942 7.34225L9.89321 7.74273L10.1602 6.94176L9.62622 6.40778H10.4272L10.6942 5.60681L11.0947 6.40778H11.7621L11.2282 6.94176L11.4952 7.74273L10.6942 7.34225Z" fill="#EFEFEF"/>
<path d="M10.6942 4.40533L9.89321 4.80581L10.1602 4.00484L9.62622 3.47086H10.4272L10.6942 2.66989L11.0947 3.47086H11.7621L11.2282 4.00484L11.4952 4.80581L10.6942 4.40533Z" fill="#EFEFEF"/>
<path d="M10.6942 1.46844L9.89321 1.86892L10.1602 1.06795L9.62622 0.533973H10.4272L10.6942 -0.266998L11.0947 0.533973H11.7621L11.2282 1.06795L11.4952 1.86892L10.6942 1.46844Z" fill="#EFEFEF"/>
<path d="M6.95633 4.40533L6.15536 4.80581L6.42235 4.00484L5.88837 3.47086H6.68934L6.95633 2.66989L7.35681 3.47086H8.02429L7.49031 4.00484L7.7573 4.80581L6.95633 4.40533Z" fill="#EFEFEF"/>
<path d="M6.95633 7.34225L6.15536 7.74273L6.42235 6.94176L5.88837 6.40778H6.68934L6.95633 5.60681L7.35681 6.40778H8.02429L7.49031 6.94176L7.7573 7.74273L6.95633 7.34225Z" fill="#EFEFEF"/>
<path d="M3.21841 7.34225L2.41744 7.74273L2.68443 6.94176L2.15045 6.40778H2.95142L3.21841 5.60681L3.6189 6.40778H4.28637L3.75239 6.94176L4.01938 7.74273L3.21841 7.34225Z" fill="#EFEFEF"/>
</g>
</svg>
