<svg width="25" height="25" viewBox="0 0 25 25" fill="none" xmlns="http://www.w3.org/2000/svg">
<path d="M23.335 12.0631C23.335 17.9613 18.5536 22.7427 12.6554 22.7427C6.75719 22.7427 1.97577 17.9613 1.97577 12.0631C1.97577 6.16491 6.75719 1.38348 12.6554 1.38348C18.5536 1.38348 23.335 6.16491 23.335 12.0631Z" fill="#6EA644"/>
<path d="M12.9224 5.65533L21.733 12.0631L12.9224 18.4709L4.11169 12.0631L12.9224 5.65533Z" fill="#FFDB44"/>
<path d="M16.6602 12.0631C16.6602 14.1275 14.9867 15.801 12.9224 15.801C10.858 15.801 9.18451 14.1275 9.18451 12.0631C9.18451 9.99873 10.858 8.32523 12.9224 8.32523C14.9867 8.32523 16.6602 9.99873 16.6602 12.0631Z" fill="#0051B5"/>
<path d="M9.54421 10.4612C9.31356 10.9467 9.18451 11.4898 9.18451 12.0631C13.0292 11.4223 15.2586 13.3091 15.8927 14.3325C16.2719 13.8369 16.5299 13.2437 16.6224 12.5971C14.4865 10.4612 11.0136 10.2832 9.54421 10.4612Z" fill="white"/>
</svg>
