<svg width="25" height="25" viewBox="0 0 25 25" fill="none" xmlns="http://www.w3.org/2000/svg">
<path d="M12.2864 22.6942C6.38824 22.6942 1.60681 17.9128 1.60681 12.0146C1.60681 6.11639 6.38824 1.33496 12.2864 1.33496C18.1846 1.33496 22.966 6.11639 22.966 12.0146C22.966 17.9128 18.1846 22.6942 12.2864 22.6942Z" fill="#FFDB44"/>
<path d="M22.2936 8.27671C20.7785 4.22202 16.8696 1.33496 12.2864 1.33496C7.70324 1.33496 3.79436 4.22201 2.27921 8.27671L22.2936 8.27671Z" fill="#D90026"/>
<path d="M2.27921 15.7524C3.79436 19.8071 7.70324 22.6942 12.2864 22.6942C16.8696 22.6942 20.7785 19.8071 22.2936 15.7524L2.27921 15.7524Z" fill="#D90026"/>
</svg>
