<svg width="24" height="24" viewBox="0 0 24 24" fill="none" xmlns="http://www.w3.org/2000/svg">
<g clip-path="url(#clip0_1113_1892)">
<path fillRule="evenodd" clipRule="evenodd" d="M2.88912 11.5214L0.111358 8.74368C0.00743845 8.63976 -0.0273616 8.48568 0.0223184 8.34936L0.927839 5.862C1.01184 5.63112 1.29288 5.54784 1.49472 5.69232C2.70384 6.55752 4.40544 6.44736 5.478 5.37456C6.54864 4.30416 6.62688 2.6412 5.76096 1.43952C5.61408 1.236 5.6988 0.951603 5.93304 0.869283L8.34912 0.020883C8.48472 -0.026637 8.63664 0.00840297 8.73936 0.111123L11.5193 2.89128L2.88912 11.5214ZM21.1101 12.482L23.8889 15.2607C23.9918 15.3637 24.0269 15.5159 23.9789 15.6515L23.1235 18.0764C23.0409 18.3104 22.7568 18.3949 22.5535 18.2483C21.3525 17.3816 19.7076 17.4519 18.6386 18.5211C17.5673 19.5925 17.4564 21.285 18.3211 22.4951C18.4651 22.6967 18.3821 22.977 18.1519 23.0615L15.6513 23.9773C15.5148 24.0275 15.3605 23.9927 15.2563 23.8887L12.48 21.1122L21.1101 12.482Z" fill="#FF9800"/>
<path fillRule="evenodd" clipRule="evenodd" d="M23.1307 5.93309C23.0484 5.69885 22.764 5.61413 22.5604 5.76077C21.3588 6.62693 19.6958 6.54845 18.6254 5.47805C17.5526 4.40525 17.4424 2.70389 18.3076 1.49477C18.4521 1.29293 18.3686 1.01189 18.138 0.927891L15.6506 0.0223711C15.5143 -0.0273089 15.3602 0.00725108 15.2563 0.111171L0.111323 15.2564C0.00716323 15.3603 -0.0273968 15.5146 0.0225232 15.6514L0.938603 18.152C1.02284 18.3819 1.30316 18.4652 1.50476 18.3212C2.71484 17.4564 4.40732 17.5671 5.47892 18.6387C6.54788 19.7076 6.61844 21.3524 5.7518 22.5533C5.60492 22.7569 5.6894 23.041 5.9234 23.1236L8.34836 23.9789C8.4842 24.0267 8.63636 23.9916 8.73932 23.8887L23.8886 8.73941C23.9916 8.63645 24.0266 8.48453 23.9791 8.34893L23.1307 5.93309Z" fill="#FF9800"/>
</g>
<defs>
<clipPath id="clip0_1113_1892">
<rect width="24" height="24" fill="white"/>
</clipPath>
</defs>
</svg>
